<svg xmlns="http://www.w3.org/2000/svg" viewBox="0 0 800 1100" role="img" aria-labelledby="title desc">
<title id="title">Celestial Rose tattoo stencil</title>
<desc id="desc">Black linework rose with leaves, stars, ornamental diamonds and placement guides.</desc>
<rect width="800" height="1100" fill="#fff"/>
<g fill="none" stroke="#111" stroke-linecap="round" stroke-linejoin="round">
  <!-- celestial geometry -->
  <g stroke-width="3">
    <path d="M400 45V145M400 955v100"/>
    <path d="M400 55l14 22-14 22-14-22zM400 112l10 16-10 16-10-16z"/>
    <path d="M400 956l18 28-18 28-18-28zM400 1018l11 18-11 18-11-18z"/>
    <ellipse cx="400" cy="515" rx="260" ry="350" stroke-dasharray="6 14"/>
    <ellipse cx="400" cy="515" rx="205" ry="292" stroke-dasharray="3 13"/>
    <path d="M400 145C340 205 315 255 310 330M400 145c60 60 85 110 90 185" stroke-dasharray="4 12"/>
    <path d="M400 890c-60-60-85-110-90-185M400 890c60-60 85-110 90-185" stroke-dasharray="4 12"/>
  </g>
  <!-- rose outer silhouette -->
  <g stroke-width="8">
    <path d="M398 278c-45-52-118-53-151 2-38 3-68 28-70 67-42 22-54 68-28 105-24 38-9 85 32 103-4 43 27 76 70 78 18 40 65 54 103 31 35 28 86 25 118-8 43 10 80-18 87-60 42-12 66-57 49-97 31-31 27-81-8-107 12-43-15-86-58-94-10-39-49-63-89-54-28-31-78-37-109-14z"/>
    <path d="M398 278c21 27 31 61 26 95-28-22-65-31-99-22 8-33 35-60 73-73z"/>
    <path d="M424 373c43-5 82 13 106 45-39 5-75 24-101 54-21-30-22-68-5-99z"/>
    <path d="M429 472c32-26 73-36 112-27-15 42-47 76-88 93-25-17-35-42-24-66z"/>
    <path d="M453 538c20 24 25 57 13 87-43-2-81-22-106-56 26-25 59-36 93-31z"/>
    <path d="M360 569c-38 16-82 11-115-14 20-36 54-63 94-74 25 21 32 55 21 88z"/>
    <path d="M339 481c-40-5-76-28-98-62 30-30 71-47 114-44 17 33 11 74-16 106z"/>
    <path d="M355 375c-29-20-48-51-52-86 38-13 81-4 112 23 2 35-20 61-60 63z"/>
  </g>
  <!-- rose center -->
  <g stroke-width="7">
    <path d="M400 365c-49 6-83 47-78 92 4 42 40 76 84 77 48 1 87-36 88-83 1-46-39-89-94-86z"/>
    <path d="M400 398c-28 1-51 21-54 48-3 28 18 54 48 58 31 4 59-18 63-49 4-31-21-58-57-57z"/>
    <path d="M401 424c-15 0-28 11-30 26-2 17 11 32 28 34 18 2 34-11 36-29 2-17-13-32-34-31z"/>
    <path d="M373 445c19 5 38 4 57-2M388 484c10-20 25-35 47-45M346 466c23-3 44 3 63 18M456 420c-7 25-6 47 5 67"/>
  </g>
  <!-- petal detail lines -->
  <g stroke-width="3.5">
    <path d="M248 335c47 19 75 51 85 96M183 416c53 6 95 28 126 67M184 535c49-19 96-21 142-7M254 628c28-43 63-73 107-91M468 646c-8-45-1-85 20-121M555 589c-43-29-66-66-72-111M597 483c-51-13-87-38-108-77M548 356c-45 12-79 35-102 70"/>
    <path d="M282 308c26 17 45 38 58 64M220 372c34 10 61 28 81 52M211 487c34-5 68-1 99 12M231 570c33-24 67-38 105-42M309 651c15-35 34-63 59-84M493 630c-7-35-3-69 11-101M561 549c-31-24-52-52-62-84M580 427c-39-9-71-28-96-57"/>
  </g>
  <!-- leaves -->
  <g stroke-width="6">
    <path d="M260 641c-78-22-132 4-158 70 67 21 126 5 168-45z"/>
    <path d="M300 685c-70 6-113 42-127 108 65-2 116-32 151-88z"/>
    <path d="M353 711c-53 36-71 83-54 141 55-28 85-72 88-132z"/>
    <path d="M531 642c78-22 132 4 158 70-67 21-126 5-168-45z"/>
    <path d="M491 685c70 6 113 42 127 108-65-2-116-32-151-88z"/>
    <path d="M438 711c53 36 71 83 54 141-55-28-85-72-88-132z"/>
  </g>
  <g stroke-width="3">
    <path d="M116 704l143-50M187 779l115-87M305 837l51-122M675 704l-143-50M604 779l-115-87M486 837l-51-122"/>
    <path d="M145 694l20 8m18-22 19 8m17-21 18 7M218 751l17 5m11-25 16 6M324 800l13 12m2-32 13 11M646 694l-20 8m-18-22-19 8m-17-21-18 7M573 751l-17 5m-11-25-16 6M467 800l-13 12m-2-32-13 11"/>
  </g>
  <!-- stem ornament -->
  <g stroke-width="6">
    <path d="M400 700v245"/>
    <path d="M400 774l-34 55 34 52 34-52z"/>
    <path d="M400 836l-18 29 18 29 18-29z"/>
  </g>
  <!-- stars -->
  <g stroke-width="4">
    <path d="M154 250v54M127 277h54M140 263l28 28M168 263l-28 28"/>
    <path d="M650 302v66M617 335h66M627 312l46 46M673 312l-46 46"/>
    <path d="M131 562v42M110 583h42M116 568l30 30M146 568l-30 30"/>
    <path d="M684 564v46M661 587h46M668 571l32 32M700 571l-32 32"/>
    <circle cx="227" cy="212" r="7"/><circle cx="585" cy="226" r="6"/><circle cx="103" cy="451" r="5"/><circle cx="707" cy="468" r="5"/>
  </g>
</g>
</svg>
